<?xml version="1.0" encoding="UTF-8" standalone="no"?>
<!-- Generator: Adobe Illustrator 19.0.0, SVG Export Plug-In . SVG Version: 6.00 Build 0)  -->

<svg
   xmlns:dc="http://purl.org/dc/elements/1.1/"
   xmlns:cc="http://creativecommons.org/ns#"
   xmlns:rdf="http://www.w3.org/1999/02/22-rdf-syntax-ns#"
   xmlns:svg="http://www.w3.org/2000/svg"
   xmlns="http://www.w3.org/2000/svg"
   xmlns:sodipodi="http://sodipodi.sourceforge.net/DTD/sodipodi-0.dtd"
   xmlns:inkscape="http://www.inkscape.org/namespaces/inkscape"
   version="1.1"
   id="Layer_1"
   x="0px"
   y="0px"
   viewBox="0 0 71.8 45.4"
   style="enable-background:new 0 0 71.8 45.4;"
   xml:space="preserve"
   inkscape:version="0.91 r13725"
   sodipodi:docname="wedding-rings.svg"><metadata
     id="metadata11"><rdf:RDF><cc:Work
         rdf:about=""><dc:format>image/svg+xml</dc:format><dc:type
           rdf:resource="http://purl.org/dc/dcmitype/StillImage" /></cc:Work></rdf:RDF></metadata><defs
     id="defs9" /><sodipodi:namedview
     pagecolor="#ffffff"
     bordercolor="#666666"
     borderopacity="1"
     objecttolerance="10"
     gridtolerance="10"
     guidetolerance="10"
     inkscape:pageopacity="0"
     inkscape:pageshadow="2"
     inkscape:window-width="1920"
     inkscape:window-height="1017"
     id="namedview7"
     showgrid="false"
     inkscape:zoom="4.8746516"
     inkscape:cx="35.900002"
     inkscape:cy="22.700001"
     inkscape:window-x="-8"
     inkscape:window-y="-8"
     inkscape:window-maximized="1"
     inkscape:current-layer="Layer_1" /><style
     type="text/css"
     id="style3">
	.st0{fill-rule:evenodd;clip-rule:evenodd;}
</style><path
     class="st0"
     d="M54.8,1.7c-9.4-3.2-20.2-2.3-25.3,5c-0.6,0-1.1-0.1-1.7-0.1C14.7,6,1.1,12.1,0.5,24.8  c-0.6,12.7,12.4,20,25.6,20.6c9.8,0.4,19.9-2.8,24.6-9.8c8.8,1,17.4-1.9,20.3-10.3C74.6,14.7,65.6,5.4,54.8,1.7 M38.2,2.9  c-13.3,7.6,1,21.6,1,21.6C20.8,8.9,38.2,2.9,38.2,2.9 M46.5,25.4c-5.3-1.9-8.9-4.6-11-7.2C41.5,19.9,45.2,23.1,46.5,25.4 M7,25.1  c0.1-2.6,7.2-8.6,19.9-8.2c0.8,6.8,6.5,12.5,13.6,15.8c-3.4,1.5-8.1,2.7-14,2.4C13.6,34.5,6.9,27.7,7,25.1 M50.6,24.4  c-1,8.9-11.7,14.3-23.1,12.4c0,0,21.6,0.3,21.6-15.2c0-5.4-7-9.5-7-9.5S51.5,15.6,50.6,24.4 M65.6,23.5c-0.6,1.7-5.3,4.1-12.3,3.5  c0.3-8.7-5.9-14.8-14-18c3.2-0.5,7.5-0.4,12.5,1.3C62.5,13.9,66.4,21.3,65.6,23.5"
     id="path5"
     style="fill:#ffffff" /></svg>