<?xml version="1.0" encoding="UTF-8" standalone="no"?>
<!-- Created with Inkscape (http://www.inkscape.org/) -->

<svg
   xmlns:dc="http://purl.org/dc/elements/1.1/"
   xmlns:cc="http://creativecommons.org/ns#"
   xmlns:rdf="http://www.w3.org/1999/02/22-rdf-syntax-ns#"
   xmlns:svg="http://www.w3.org/2000/svg"
   xmlns="http://www.w3.org/2000/svg"
   xmlns:sodipodi="http://sodipodi.sourceforge.net/DTD/sodipodi-0.dtd"
   xmlns:inkscape="http://www.inkscape.org/namespaces/inkscape"
   width="102.81709mm"
   height="90.037712mm"
   viewBox="0 0 364.31251 319.03126"
   id="svg2"
   version="1.1"
   inkscape:version="0.91 r13725"
   sodipodi:docname="white_crown_no_background.svg">
  <defs
     id="defs4" />
  <sodipodi:namedview
     id="base"
     pagecolor="#ffffff"
     bordercolor="#666666"
     borderopacity="1.0"
     inkscape:pageopacity="0.0"
     inkscape:pageshadow="2"
     inkscape:zoom="0.35"
     inkscape:cx="-421.41518"
     inkscape:cy="5.2299123"
     inkscape:document-units="px"
     inkscape:current-layer="g3814"
     showgrid="false"
     fit-margin-top="0"
     fit-margin-left="0"
     fit-margin-right="0"
     fit-margin-bottom="0"
     inkscape:window-width="1920"
     inkscape:window-height="1017"
     inkscape:window-x="-8"
     inkscape:window-y="-8"
     inkscape:window-maximized="1" />
  <metadata
     id="metadata7">
    <rdf:RDF>
      <cc:Work
         rdf:about="">
        <dc:format>image/svg+xml</dc:format>
        <dc:type
           rdf:resource="http://purl.org/dc/dcmitype/StillImage" />
        <dc:title></dc:title>
      </cc:Work>
    </rdf:RDF>
  </metadata>
  <g
     inkscape:label="Ebene 1"
     inkscape:groupmode="layer"
     id="layer1"
     transform="translate(-137.84375,-218.56087)">
    <g
       transform="translate(-497.16518,462.09658)"
       id="layer1-2"
       inkscape:label="Layer 1">
      <g
         id="g3814"
         transform="translate(642.85714,-82.857143)">
        <path
           style="fill:#ffffff;stroke:none"
           d="m 162.87054,-160.67857 0,3.40625 8.5625,14.46875 0,5.5625 -13.75,-8.96875 -2.59375,0 0,23.5625 2.59375,0 13.75,-7.90625 0,13.4375 c -9.48778,1.3894 -16.78125,9.56357 -16.78125,19.437497 0,10.84845 8.77655,19.65625 19.625,19.65625 10.84845,0 19.65625,-8.8078 19.65625,-19.65625 0,-9.557047 -6.83044,-17.492907 -15.875,-19.249997 l 0,-12.6875 13.6875,7.875 2.4375,0 0,-22.3125 -2.4375,0 -13.6875,8.90625 0,-7.65625 8.5625,-14.46875 0,-3.40625 -23.75,0 z m 8.5625,48.46875 0,11.71875 c -3.74309,-0.65317 -7.15785,-2.25037 -10.03125,-4.5 2.1016,-3.69113 5.72754,-6.38294 10.03125,-7.21875 z m 6.625,0.21875 c 4.3138,1.1397 7.85802,4.16991 9.6875,8.15625 -2.84054,1.85463 -6.1503,3.05156 -9.6875,3.46875 l 0,-11.625 z m -40.5625,18.281247 c -4.93111,0 -8.9375,4.00638 -8.9375,8.9375 0,4.93111 4.00639,8.90625 8.9375,8.90625 4.93111,0 8.9375,-3.97514 8.9375,-8.90625 0,-4.93112 -4.00639,-8.9375 -8.9375,-8.9375 z m 73.59375,0 c -4.93111,0 -8.9375,4.00638 -8.9375,8.9375 0,4.93111 4.00639,8.90625 8.9375,8.90625 4.93111,0 8.9375,-3.97514 8.9375,-8.90625 0,-4.93112 -4.00639,-8.9375 -8.9375,-8.9375 z m -40.375,2.09375 c 5.18954,0 9.95769,1.75307 13.78125,4.6875 -2.65812,2.52676 -6.26179,4.0625 -10.21875,4.0625 -5.27705,0 -9.9051,-2.75323 -12.53125,-6.90625 2.74829,-1.18306 5.78798,-1.84375 8.96875,-1.84375 z m -56.78125,3.96875 c -4.53662,0 -8.21875,3.68212 -8.21875,8.21875 0,4.53662 3.68213,8.21875 8.21875,8.21875 4.53662,0 8.21875,-3.68213 8.21875,-8.21875 0,-4.53663 -3.68213,-8.21875 -8.21875,-8.21875 z m 120.71875,0 c -4.53662,0 -8.21875,3.68212 -8.21875,8.21875 0,4.53662 3.68213,8.21875 8.21875,8.21875 4.53662,0 8.21875,-3.68213 8.21875,-8.21875 0,-4.53663 -3.68213,-8.21875 -8.21875,-8.21875 z m -142.15625,10.1875 c -4.04351,0 -7.3125,3.26898 -7.3125,7.3125 0,4.04351 3.26899,7.34375 7.3125,7.34375 4.04351,0 7.3125,-3.30024 7.3125,-7.34375 0,-4.04352 -3.26899,-7.3125 -7.3125,-7.3125 z m 163.59375,0 c -4.04351,0 -7.3125,3.26898 -7.3125,7.3125 0,4.04351 3.26899,7.34375 7.3125,7.34375 4.04351,0 7.3125,-3.30024 7.3125,-7.34375 0,-4.04352 -3.26899,-7.3125 -7.3125,-7.3125 z m -107,2.875 -3.3125,0.5 c -28.03783,4.22144 -54.34188,15.25306 -75.25,26.875 -20.908124,11.62193 -36.24411,23.62314 -43,30.90625 l 6.375,5.90625 c 5.43741,-5.86174 20.637956,-17.96984 40.875,-29.21875 19.3852,-10.77541 43.5725,-20.88849 68.96875,-25.25 3.7182,8.32902 7.24396,16.01617 10.90625,34.84375 l 8.53125,0 c -4.23165,-21.7546 -8.6818,-32.15422 -12.78125,-41.5 l -1.3125,-3.0625 z m 50.40625,0 -1.3125,3.0625 c -4.09945,9.34578 -8.5496,19.7454 -12.78125,41.5 l 8.53125,0 c 3.66229,-18.82758 7.18805,-26.51473 10.90625,-34.84375 25.39625,4.36151 49.58355,14.47459 68.96875,25.25 20.23704,11.24891 35.43759,23.35701 40.875,29.21875 l 6.375,-5.90625 c -6.75589,-7.28311 -22.09188,-19.28432 -43,-30.90625 -20.90812,-11.62194 -47.21217,-22.65356 -75.25,-26.875 l -3.3125,-0.5 z m -25.21875,0.59375 c -4.14214,0 -7.5,3.35786 -7.5,7.5 0,4.14213 3.35786,7.5 7.5,7.5 4.14214,0 7.5,-3.35787 7.5,-7.5 0,-4.14214 -3.35786,-7.5 -7.5,-7.5 z m -100.71875,6 c -3.74765,0 -6.78125,3.0336 -6.78125,6.78125 0,3.74764 3.0336,6.78125 6.78125,6.78125 3.74765,0 6.8125,-3.03361 6.8125,-6.78125 0,-3.74765 -3.06485,-6.78125 -6.8125,-6.78125 z m 201.46875,0 c -3.74765,0 -6.8125,3.0336 -6.8125,6.78125 0,3.74764 3.06485,6.78125 6.8125,6.78125 3.74765,0 6.78125,-3.03361 6.78125,-6.78125 0,-3.74765 -3.0336,-6.78125 -6.78125,-6.78125 z m -220.75,12.125 c -3.5504,0 -6.40625,2.8871 -6.40625,6.4375 0,3.5504 2.85585,6.4375 6.40625,6.4375 3.55041,0 6.4375,-2.8871 6.4375,-6.4375 0,-3.5504 -2.88709,-6.4375 -6.4375,-6.4375 z m 240.03125,0 c -3.55041,0 -6.4375,2.8871 -6.4375,6.4375 0,3.5504 2.88709,6.4375 6.4375,6.4375 3.5504,0 6.40625,-2.8871 6.40625,-6.4375 0,-3.5504 -2.85585,-6.4375 -6.40625,-6.4375 z m -120.03125,1 c -3.5504,0 -6.40625,2.8871 -6.40625,6.4375 0,3.5504 2.85585,6.40625 6.40625,6.40625 3.5504,0 6.4375,-2.85585 6.4375,-6.40625 0,-3.5504 -2.8871,-6.4375 -6.4375,-6.4375 z m -137.125,11.875 c -3.15591,0 -5.71875,2.56283 -5.71875,5.71875 0,3.15591 2.56284,5.71875 5.71875,5.71875 3.15592,0 5.71875,-2.56284 5.71875,-5.71875 0,-3.15592 -2.56283,-5.71875 -5.71875,-5.71875 z m 274.28125,0 c -3.15592,0 -5.71875,2.56283 -5.71875,5.71875 0,3.15591 2.56283,5.71875 5.71875,5.71875 3.15591,0 5.71875,-2.56284 5.71875,-5.71875 0,-3.15592 -2.56284,-5.71875 -5.71875,-5.71875 z m -230,1.4375 c -8.26142,12.81993 -7.91969,29.32119 -2.875,47.8437499 -38.372372,-16.3307999 -51.58123,32.8839701 -22.5,47.8437501 -2.222257,-11.94446 -0.09328,-24.68795 12.875,-26.0625 6.93575,-0.73515 15.08281,1.22672 16.0625,13.9375 0.68919,8.94171 -6.88902,30.29143 -30.71875,30 -14.890636,-0.18488 -30.79102,-5.76186 -37.84375,-29.625 -2.62898,-8.89525 -2.584,-8.46124 6.15625,-4.84375 3.42066,1.41577 7.75474,4.35374 14.90625,10.53125 -0.5061,-9.99237 -5.33897,-35.34973 -10.34375,-42.8437501 -6.68303,4.72469 -7.39636,10.2928001 -20,13.9062501 4.47828,-8.66771 8.63255,-17.5127101 15,-27.1250001 -13.26575,0.9897 -21.24636,4.17037 -30,6.0625 2.05285,8.51335 4.13796,16.9175301 7.125,23.5625001 -6.56804,12.73311 -1.07183,18.45693 5.71875,24.65625 2.7653,2.52452 15.25092,39.2578 8.9375,51.78125 -3.32853,6.602563 -1.38238,13.662703 3.21875,16.781253 5.14736,3.48877 9.77166,7.97139 13.96875,12.59375 5.37468,5.91925 4.12448,6.53067 10.71875,2.90625 23.21402,-12.75918 73.82788,-21.53125 132.46875,-21.53125 58.64087,0 109.25473,8.77207 132.46875,21.53125 6.59427,3.62442 5.34407,3.013 10.71875,-2.90625 4.19709,-4.62236 8.82139,-9.10498 13.96875,-12.59375 4.60113,-3.11855 6.54728,-10.17869 3.21875,-16.781253 -6.31342,-12.52345 6.1722,-49.25673 8.9375,-51.78125 6.79058,-6.19932 12.28679,-11.92314 5.71875,-24.65625 2.98704,-6.64497 5.07215,-15.0491501 7.125,-23.5625001 -8.75364,-1.89213 -16.73425,-5.0728 -30,-6.0625 6.36745,9.61229 10.52172,18.4572901 15,27.1250001 -12.60364,-3.61345 -13.31697,-9.1815601 -20,-13.9062501 -5.00478,7.4940201 -9.83765,32.8513801 -10.34375,42.8437501 7.15151,-6.17751 11.48559,-9.11548 14.90625,-10.53125 8.74025,-3.61749 8.78523,-4.0515 6.15625,4.84375 -7.05273,23.86314 -22.95312,29.44012 -37.84375,29.625 -23.82973,0.29143 -31.40794,-21.05829 -30.71875,-30 0.97969,-12.71078 9.12675,-14.67265 16.0625,-13.9375 12.9683,1.37455 15.09725,14.11804 12.875,26.0625 29.08123,-14.95978 15.87237,-64.17455 -22.5,-47.8437501 5.04469,-18.5225599 5.38642,-35.0238199 -2.875,-47.8437499 -9.98787,10.03756 -21.69315,18.53912 -17.84375,45.6874999 -7.22516,-5.18222 -13.51393,-10.39942 -20,-8.90625 -8.74455,2.0131 -16.7024,5.56385004 -18.21875,19.2812501 -1.05881,9.57834 4.44976,18.71239 11.78125,24.625 0.97739,-9.39916 2.71565,-17.5927 13.21875,-17.84375 12.06039,-0.28828 14.29989,9.67231 13.9375,17.5 -0.5018,10.83945 -15.16542,23.55777 -33.9375,22.15625 -18.81638,-1.40482 -35.12441,-17.44295 -34.84375,-36.875 5.95666,1.42913 13.45148,7.6211 16.90625,10.59375 0.66534,0.57252 2.98942,0.5297 3.65625,0.5625 l 0,-40.6250001 c -0.8738,0.0194 -2.66685,-0.23033 -3.71875,0.40625 -5.39715,3.26621 -11.81141,13.63539 -15.5625,12.71875 2.91416,-11.90976 10.87424,-26.2321899 11.0625,-31.0937499 l -38.625,0 c 0.18826,4.86156 8.14834,19.1839899 11.0625,31.0937499 -3.75109,0.91664 -10.16535,-9.45254 -15.5625,-12.71875 -1.0519,-0.63658 -2.84495,-0.38683 -3.71875,-0.40625 l 0,40.6250001 c 0.66683,-0.0328 2.99091,0.01 3.65625,-0.5625 3.45477,-2.97265 10.94959,-9.16462 16.90625,-10.59375 0.28066,19.43205 -16.02737,35.47018 -34.84375,36.875 -18.77208,1.40152 -33.4357,-11.3168 -33.9375,-22.15625 -0.36239,-7.82769 1.87711,-17.78828 13.9375,-17.5 10.5031,0.25105 12.24136,8.44459 13.21875,17.84375 7.33149,-5.91261 12.84006,-15.04666 11.78125,-24.625 -1.51635,-13.71740006 -9.4742,-17.2681501 -18.21875,-19.2812501 -6.48607,-1.49317 -12.77484,3.72403 -20,8.90625 3.8494,-27.1483799 -7.85588,-35.6499399 -17.84375,-45.6874999 z m 92.84375,3.65625 c -2.56418,0 -4.625,2.06082 -4.625,4.625 0,2.56418 2.06082,4.65625 4.625,4.65625 2.56418,0 4.65625,-2.09207 4.65625,-4.65625 0,-2.56418 -2.09207,-4.625 -4.65625,-4.625 z m -151.0625,8.46875 c -2.56418,0 -4.65625,2.09207 -4.65625,4.65625 0,2.56418 2.09207,4.625 4.65625,4.625 2.56418,0 4.65625,-2.06082 4.65625,-4.625 0,-2.56418 -2.09207,-4.65625 -4.65625,-4.65625 z m 302.15625,0 c -2.56418,0 -4.65625,2.09207 -4.65625,4.65625 0,2.56418 2.09207,4.625 4.65625,4.625 2.56418,0 4.65625,-2.06082 4.65625,-4.625 0,-2.56418 -2.09207,-4.65625 -4.65625,-4.65625 z m -151.09375,40.4375 c 2.16969,0 3.9375,1.76781 3.9375,3.9375 0,2.16969 -1.76781,3.9375 -3.9375,3.9375 -2.16969,0 -3.90625,-1.76781 -3.90625,-3.9375 0,-2.16969 1.73656,-3.9375 3.90625,-3.9375 z m -171.28125,15.375 c 1.58388,-0.0326 3.49496,2.55028 4.40625,6.03125 0.97205,3.71303 0.41727,7.056 -1.21875,7.46875 -1.63602,0.41275 -3.7467,-2.25572 -4.71875,-5.96875 -0.97204,-3.71303 -0.41727,-7.056 1.21875,-7.46875 0.10225,-0.0258 0.20691,-0.0603 0.3125,-0.0625 z m 342.625,0 c 0.10559,0.002 0.21025,0.0367 0.3125,0.0625 1.63602,0.41275 2.19079,3.75572 1.21875,7.46875 -0.97204,3.71303 -3.08273,6.3815 -4.71875,5.96875 -1.63602,-0.41275 -2.19079,-3.75572 -1.21875,-7.46875 0.91129,-3.48097 2.82237,-6.06382 4.40625,-6.03125 z m -171.34375,38.75 9.21875,14.71875 -9.21875,14.75 -9.21875,-14.75 9.21875,-14.71875 z m -38.21875,5.09375 c 2.56418,0 4.65625,2.06082 4.65625,4.625 0,2.56418 -2.09207,4.65625 -4.65625,4.65625 -2.56418,0 -4.625,-2.09207 -4.625,-4.65625 0,-2.56418 2.06082,-4.625 4.625,-4.625 z m 76.5,0 c 2.56418,0 4.625,2.06082 4.625,4.625 0,2.56418 -2.06082,4.65625 -4.625,4.65625 -2.56418,0 -4.65625,-2.09207 -4.65625,-4.65625 0,-2.56418 2.09207,-4.625 4.65625,-4.625 z m -111.78125,0.96875 c 9.4977,0.18674 17.25372,5.20715 18.15625,12.3125 1.03146,8.1204 -7.29367,15.87716 -18.59375,17.312503 -11.30008,1.43534 -21.28104,-4.004603 -22.3125,-12.125003 -1.03146,-8.1204 7.29367,-15.84591 18.59375,-17.28125 1.41251,-0.17942 2.79944,-0.24543 4.15625,-0.21875 z m 147.0625,0 c 1.35681,-0.0267 2.74374,0.0393 4.15625,0.21875 11.30008,1.43534 19.62521,9.16085 18.59375,17.28125 -1.03146,8.1204 -11.01242,13.560343 -22.3125,12.125003 -11.30008,-1.435343 -19.62521,-9.192103 -18.59375,-17.312503 0.90253,-7.10535 8.65855,-12.12576 18.15625,-12.3125 z m -193.375,13.125 c 2.564179,0 4.65625,2.09207 4.65625,4.65625 0,2.56418 -2.092071,4.625 -4.65625,4.625 -2.564179,0 -4.65625,-2.06082 -4.65625,-4.625 0,-2.56418 2.092071,-4.65625 4.65625,-4.65625 z m 239.6875,0 c 2.56418,0 4.65625,2.09207 4.65625,4.65625 0,2.56418 -2.09207,4.625 -4.65625,4.625 -2.56418,0 -4.65625,-2.06082 -4.65625,-4.625 0,-2.56418 2.09207,-4.65625 4.65625,-4.65625 z m -155.59375,5.1875 c 2.56418,0 4.65625,2.06082 4.65625,4.625 0,2.56418 -2.09207,4.65625 -4.65625,4.65625 -2.56418,0 -4.625,-2.09207 -4.625,-4.65625 0,-2.56418 2.06082,-4.625 4.625,-4.625 z m 71.5,0 c 2.56418,0 4.625,2.06082 4.625,4.625 0,2.56418 -2.06082,4.65625 -4.625,4.65625 -2.56418,0 -4.65625,-2.09207 -4.65625,-4.65625 0,-2.56418 2.09207,-4.625 4.65625,-4.625 z m -187.125,4.75 9.90625,8.062503 -2.875,12.46875 -9.9375,-8.09375 2.90625,-12.437503 z m 302.75,0 2.90625,12.437503 -9.9375,8.09375 -2.875,-12.46875 9.90625,-8.062503 z m -267.8125,8.812503 c 2.564179,0 4.625,2.09207 4.625,4.65625 0,2.56418 -2.060821,4.625 -4.625,4.625 -2.564179,0 -4.65625,-2.06082 -4.65625,-4.625 0,-2.56418 2.092071,-4.65625 4.65625,-4.65625 z m 232.875,0 c 2.56418,0 4.65625,2.09207 4.65625,4.65625 0,2.56418 -2.09207,4.625 -4.65625,4.625 -2.56418,0 -4.625,-2.06082 -4.625,-4.625 0,-2.56418 2.06082,-4.65625 4.625,-4.65625 z m -116.4375,11.1875 c -72.38876,0 -131.0625,14.80987 -131.0625,23.21875 0,7.69529 58.67374,20.875 131.0625,20.875 72.38876,0 131.0625,-13.17971 131.0625,-20.875 0,-8.40888 -58.67374,-23.21875 -131.0625,-23.21875 z"
           id="path2902"
           inkscape:connector-curvature="0" />
      </g>
    </g>
  </g>
</svg>
